<mxfile host="app.diagrams.net" agent="Mozilla/5.0 (Windows NT 10.0; Win64; x64) AppleWebKit/537.36 (KHTML, like Gecko) Chrome/141.0.0.0 Safari/537.36 Edg/141.0.0.0" version="28.2.5">
  <diagram name="第 1 页" id="mX5azJ5RVqOryZT0z9P2">
    <mxGraphModel dx="3880" dy="1183" grid="0" gridSize="10" guides="1" tooltips="1" connect="1" arrows="1" fold="1" page="0" pageScale="1" pageWidth="827" pageHeight="1169" math="0" shadow="0">
      <root>
        <mxCell id="0" />
        <mxCell id="1" parent="0" />
        <mxCell id="chwz9O-2DyEXbueZdgeh-3" value="" style="rounded=0;whiteSpace=wrap;html=1;fillColor=#f9f7ed;strokeColor=none;" vertex="1" parent="1">
          <mxGeometry x="15" y="396" width="1190" height="1057" as="geometry" />
        </mxCell>
        <mxCell id="NKk_q9qwWGEqTN7oKwz2-157" value="" style="endArrow=classic;html=1;rounded=0;entryX=0.5;entryY=0;entryDx=0;entryDy=0;" parent="1" target="NKk_q9qwWGEqTN7oKwz2-158" edge="1">
          <mxGeometry width="50" height="50" relative="1" as="geometry">
            <mxPoint x="540" y="1240" as="sourcePoint" />
            <mxPoint x="380" y="1360" as="targetPoint" />
            <Array as="points">
              <mxPoint x="540" y="1290" />
              <mxPoint x="375" y="1290" />
              <mxPoint x="375" y="1330" />
            </Array>
          </mxGeometry>
        </mxCell>
        <mxCell id="NKk_q9qwWGEqTN7oKwz2-34" value="" style="edgeStyle=orthogonalEdgeStyle;rounded=0;orthogonalLoop=1;jettySize=auto;html=1;" parent="1" source="NKk_q9qwWGEqTN7oKwz2-2" target="NKk_q9qwWGEqTN7oKwz2-31" edge="1">
          <mxGeometry relative="1" as="geometry" />
        </mxCell>
        <mxCell id="NKk_q9qwWGEqTN7oKwz2-2" value="" style="ellipse;whiteSpace=wrap;html=1;fillColor=#e1d5e7;strokeColor=#9673a6;" parent="1" vertex="1">
          <mxGeometry x="335" y="480" width="50" height="50" as="geometry" />
        </mxCell>
        <mxCell id="NKk_q9qwWGEqTN7oKwz2-35" value="" style="edgeStyle=orthogonalEdgeStyle;rounded=0;orthogonalLoop=1;jettySize=auto;html=1;" parent="1" source="NKk_q9qwWGEqTN7oKwz2-16" edge="1">
          <mxGeometry relative="1" as="geometry">
            <mxPoint x="665" y="560" as="targetPoint" />
          </mxGeometry>
        </mxCell>
        <mxCell id="NKk_q9qwWGEqTN7oKwz2-16" value="" style="ellipse;whiteSpace=wrap;html=1;fillColor=#e1d5e7;strokeColor=#9673a6;" parent="1" vertex="1">
          <mxGeometry x="640" y="480" width="50" height="50" as="geometry" />
        </mxCell>
        <mxCell id="NKk_q9qwWGEqTN7oKwz2-36" value="" style="edgeStyle=orthogonalEdgeStyle;rounded=0;orthogonalLoop=1;jettySize=auto;html=1;" parent="1" source="NKk_q9qwWGEqTN7oKwz2-17" edge="1">
          <mxGeometry relative="1" as="geometry">
            <mxPoint x="995" y="560" as="targetPoint" />
          </mxGeometry>
        </mxCell>
        <mxCell id="NKk_q9qwWGEqTN7oKwz2-17" value="" style="ellipse;whiteSpace=wrap;html=1;fillColor=#e1d5e7;strokeColor=#9673a6;" parent="1" vertex="1">
          <mxGeometry x="970" y="480" width="50" height="50" as="geometry" />
        </mxCell>
        <mxCell id="NKk_q9qwWGEqTN7oKwz2-19" value="&lt;font&gt;top-k&lt;/font&gt;" style="text;html=1;align=center;verticalAlign=middle;resizable=0;points=[];autosize=1;strokeColor=none;fillColor=none;fontStyle=1;fontSize=28;" parent="1" vertex="1">
          <mxGeometry x="-120" y="851" width="90" height="50" as="geometry" />
        </mxCell>
        <mxCell id="NKk_q9qwWGEqTN7oKwz2-23" value="&lt;font&gt;top-1&lt;/font&gt;" style="text;html=1;align=center;verticalAlign=middle;resizable=0;points=[];autosize=1;strokeColor=none;fillColor=none;fontStyle=1;fontSize=28;" parent="1" vertex="1">
          <mxGeometry x="310" y="415" width="90" height="50" as="geometry" />
        </mxCell>
        <mxCell id="NKk_q9qwWGEqTN7oKwz2-24" value="&lt;font&gt;top-2&lt;/font&gt;" style="text;html=1;align=center;verticalAlign=middle;resizable=0;points=[];autosize=1;strokeColor=none;fillColor=none;fontStyle=1;fontSize=28;" parent="1" vertex="1">
          <mxGeometry x="620" y="415" width="90" height="50" as="geometry" />
        </mxCell>
        <mxCell id="NKk_q9qwWGEqTN7oKwz2-26" value="&lt;font&gt;top-3&lt;/font&gt;" style="text;html=1;align=center;verticalAlign=middle;resizable=0;points=[];autosize=1;strokeColor=none;fillColor=none;fontStyle=1;fontSize=28;" parent="1" vertex="1">
          <mxGeometry x="947" y="415" width="90" height="50" as="geometry" />
        </mxCell>
        <mxCell id="NKk_q9qwWGEqTN7oKwz2-29" value="&lt;font&gt;token-1&lt;/font&gt;" style="text;html=1;align=center;verticalAlign=middle;resizable=0;points=[];autosize=1;strokeColor=none;fillColor=none;fontStyle=1;fontSize=28;" parent="1" vertex="1">
          <mxGeometry x="80" y="480" width="120" height="50" as="geometry" />
        </mxCell>
        <mxCell id="NKk_q9qwWGEqTN7oKwz2-52" value="" style="group" parent="1" vertex="1" connectable="0">
          <mxGeometry x="210" y="560" width="290" height="180" as="geometry" />
        </mxCell>
        <mxCell id="NKk_q9qwWGEqTN7oKwz2-90" style="edgeStyle=orthogonalEdgeStyle;rounded=0;orthogonalLoop=1;jettySize=auto;html=1;exitX=0.5;exitY=1;exitDx=0;exitDy=0;" parent="NKk_q9qwWGEqTN7oKwz2-52" source="NKk_q9qwWGEqTN7oKwz2-31" edge="1">
          <mxGeometry relative="1" as="geometry">
            <mxPoint x="150" y="330" as="targetPoint" />
          </mxGeometry>
        </mxCell>
        <mxCell id="NKk_q9qwWGEqTN7oKwz2-31" value="" style="rounded=0;whiteSpace=wrap;html=1;fillColor=#fad9d5;strokeColor=#ae4132;" parent="NKk_q9qwWGEqTN7oKwz2-52" vertex="1">
          <mxGeometry x="10" width="280" height="180" as="geometry" />
        </mxCell>
        <mxCell id="NKk_q9qwWGEqTN7oKwz2-47" value="&lt;font style=&quot;font-size: 16px;&quot;&gt;&lt;b style=&quot;&quot;&gt;candidate&lt;/b&gt;&lt;/font&gt;&lt;div&gt;&lt;font style=&quot;font-size: 16px;&quot;&gt;&lt;b style=&quot;&quot;&gt;token_logits&lt;/b&gt;&lt;/font&gt;&lt;/div&gt;" style="text;html=1;align=center;verticalAlign=middle;resizable=0;points=[];autosize=1;strokeColor=none;fillColor=none;" parent="NKk_q9qwWGEqTN7oKwz2-52" vertex="1">
          <mxGeometry y="130" width="120" height="50" as="geometry" />
        </mxCell>
        <mxCell id="NKk_q9qwWGEqTN7oKwz2-48" value="&lt;font style=&quot;font-size: 16px;&quot;&gt;&lt;b&gt;Z&lt;sub style=&quot;&quot;&gt;_0&lt;/sub&gt;(X&lt;sub style=&quot;&quot;&gt;t&lt;/sub&gt;|X&lt;sub style=&quot;&quot;&gt;&amp;lt;t&lt;/sub&gt;)&lt;/b&gt;&lt;/font&gt;" style="text;html=1;align=center;verticalAlign=middle;resizable=0;points=[];autosize=1;strokeColor=none;fillColor=none;" parent="NKk_q9qwWGEqTN7oKwz2-52" vertex="1">
          <mxGeometry x="140" y="130" width="100" height="40" as="geometry" />
        </mxCell>
        <mxCell id="NKk_q9qwWGEqTN7oKwz2-51" value="" style="group" parent="NKk_q9qwWGEqTN7oKwz2-52" vertex="1" connectable="0">
          <mxGeometry x="100" y="10" width="180" height="135" as="geometry" />
        </mxCell>
        <mxCell id="NKk_q9qwWGEqTN7oKwz2-37" value="" style="endArrow=none;html=1;rounded=0;movable=1;resizable=1;rotatable=1;deletable=1;editable=1;locked=0;connectable=1;fontSize=18;fontStyle=1" parent="NKk_q9qwWGEqTN7oKwz2-51" edge="1">
          <mxGeometry width="50" height="50" relative="1" as="geometry">
            <mxPoint y="100.02999999999997" as="sourcePoint" />
            <mxPoint x="180" y="100" as="targetPoint" />
          </mxGeometry>
        </mxCell>
        <mxCell id="NKk_q9qwWGEqTN7oKwz2-39" value="" style="rounded=0;whiteSpace=wrap;html=1;fillColor=#b1ddf0;strokeColor=#10739e;movable=1;resizable=1;rotatable=1;deletable=1;editable=1;locked=0;connectable=1;" parent="NKk_q9qwWGEqTN7oKwz2-51" vertex="1">
          <mxGeometry x="10" y="40" width="30" height="60" as="geometry" />
        </mxCell>
        <mxCell id="NKk_q9qwWGEqTN7oKwz2-40" value="" style="rounded=0;whiteSpace=wrap;html=1;fillColor=#b1ddf0;strokeColor=#10739e;movable=1;resizable=1;rotatable=1;deletable=1;editable=1;locked=0;connectable=1;" parent="NKk_q9qwWGEqTN7oKwz2-51" vertex="1">
          <mxGeometry x="50" width="30" height="100" as="geometry" />
        </mxCell>
        <mxCell id="NKk_q9qwWGEqTN7oKwz2-41" value="" style="rounded=0;whiteSpace=wrap;html=1;fillColor=#b1ddf0;strokeColor=#10739e;movable=1;resizable=1;rotatable=1;deletable=1;editable=1;locked=0;connectable=1;" parent="NKk_q9qwWGEqTN7oKwz2-51" vertex="1">
          <mxGeometry x="95" y="20" width="30" height="80" as="geometry" />
        </mxCell>
        <mxCell id="NKk_q9qwWGEqTN7oKwz2-42" value="" style="rounded=0;whiteSpace=wrap;html=1;fillColor=#b1ddf0;strokeColor=#10739e;movable=1;resizable=1;rotatable=1;deletable=1;editable=1;locked=0;connectable=1;fontSize=18;fontStyle=1" parent="NKk_q9qwWGEqTN7oKwz2-51" vertex="1">
          <mxGeometry x="140" y="70" width="30" height="30" as="geometry" />
        </mxCell>
        <mxCell id="NKk_q9qwWGEqTN7oKwz2-43" value="t_1" style="text;html=1;align=center;verticalAlign=middle;resizable=1;points=[];autosize=1;strokeColor=none;fillColor=none;movable=1;rotatable=1;deletable=1;editable=1;locked=0;connectable=1;fontSize=18;fontStyle=1" parent="NKk_q9qwWGEqTN7oKwz2-51" vertex="1">
          <mxGeometry y="95" width="50" height="40" as="geometry" />
        </mxCell>
        <mxCell id="NKk_q9qwWGEqTN7oKwz2-44" value="t_2" style="text;html=1;align=center;verticalAlign=middle;resizable=1;points=[];autosize=1;strokeColor=none;fillColor=none;movable=1;rotatable=1;deletable=1;editable=1;locked=0;connectable=1;fontSize=18;fontStyle=1" parent="NKk_q9qwWGEqTN7oKwz2-51" vertex="1">
          <mxGeometry x="40" y="95" width="50" height="40" as="geometry" />
        </mxCell>
        <mxCell id="NKk_q9qwWGEqTN7oKwz2-45" value="t_3" style="text;html=1;align=center;verticalAlign=middle;resizable=1;points=[];autosize=1;strokeColor=none;fillColor=none;movable=1;rotatable=1;deletable=1;editable=1;locked=0;connectable=1;fontSize=18;fontStyle=1" parent="NKk_q9qwWGEqTN7oKwz2-51" vertex="1">
          <mxGeometry x="85" y="95" width="50" height="40" as="geometry" />
        </mxCell>
        <mxCell id="NKk_q9qwWGEqTN7oKwz2-46" value="t_4" style="text;html=1;align=center;verticalAlign=middle;resizable=1;points=[];autosize=1;strokeColor=none;fillColor=none;movable=1;rotatable=1;deletable=1;editable=1;locked=0;connectable=1;fontSize=18;fontStyle=1" parent="NKk_q9qwWGEqTN7oKwz2-51" vertex="1">
          <mxGeometry x="130" y="95" width="50" height="40" as="geometry" />
        </mxCell>
        <mxCell id="NKk_q9qwWGEqTN7oKwz2-81" value="&lt;b&gt;&lt;font&gt;Path_0&lt;/font&gt;&lt;/b&gt;" style="text;html=1;align=center;verticalAlign=middle;resizable=0;points=[];autosize=1;strokeColor=none;fillColor=none;fontSize=22;" parent="NKk_q9qwWGEqTN7oKwz2-52" vertex="1">
          <mxGeometry y="-5" width="100" height="40" as="geometry" />
        </mxCell>
        <mxCell id="NKk_q9qwWGEqTN7oKwz2-53" value="" style="group" parent="1" vertex="1" connectable="0">
          <mxGeometry x="540" y="560" width="290" height="180" as="geometry" />
        </mxCell>
        <mxCell id="NKk_q9qwWGEqTN7oKwz2-88" style="edgeStyle=orthogonalEdgeStyle;rounded=0;orthogonalLoop=1;jettySize=auto;html=1;exitX=0.5;exitY=1;exitDx=0;exitDy=0;" parent="NKk_q9qwWGEqTN7oKwz2-53" source="NKk_q9qwWGEqTN7oKwz2-54" edge="1">
          <mxGeometry relative="1" as="geometry">
            <mxPoint x="150" y="240" as="targetPoint" />
          </mxGeometry>
        </mxCell>
        <mxCell id="NKk_q9qwWGEqTN7oKwz2-54" value="" style="rounded=0;whiteSpace=wrap;html=1;fillColor=#fad9d5;strokeColor=#ae4132;" parent="NKk_q9qwWGEqTN7oKwz2-53" vertex="1">
          <mxGeometry x="10" width="280" height="180" as="geometry" />
        </mxCell>
        <mxCell id="NKk_q9qwWGEqTN7oKwz2-55" value="&lt;font style=&quot;font-size: 16px;&quot;&gt;&lt;b style=&quot;&quot;&gt;candidate&lt;/b&gt;&lt;/font&gt;&lt;div&gt;&lt;font style=&quot;font-size: 16px;&quot;&gt;&lt;b style=&quot;&quot;&gt;token_logits&lt;/b&gt;&lt;/font&gt;&lt;/div&gt;" style="text;html=1;align=center;verticalAlign=middle;resizable=0;points=[];autosize=1;strokeColor=none;fillColor=none;" parent="NKk_q9qwWGEqTN7oKwz2-53" vertex="1">
          <mxGeometry y="130" width="120" height="50" as="geometry" />
        </mxCell>
        <mxCell id="NKk_q9qwWGEqTN7oKwz2-56" value="&lt;font style=&quot;font-size: 16px;&quot;&gt;&lt;b&gt;Z&lt;sub style=&quot;&quot;&gt;_1&lt;/sub&gt;(X&lt;sub style=&quot;&quot;&gt;t&lt;/sub&gt;|X&lt;sub style=&quot;&quot;&gt;&amp;lt;t&lt;/sub&gt;)&lt;/b&gt;&lt;/font&gt;" style="text;html=1;align=center;verticalAlign=middle;resizable=0;points=[];autosize=1;strokeColor=none;fillColor=none;" parent="NKk_q9qwWGEqTN7oKwz2-53" vertex="1">
          <mxGeometry x="140" y="130" width="100" height="40" as="geometry" />
        </mxCell>
        <mxCell id="NKk_q9qwWGEqTN7oKwz2-57" value="" style="group" parent="NKk_q9qwWGEqTN7oKwz2-53" vertex="1" connectable="0">
          <mxGeometry x="100" y="10" width="180" height="135" as="geometry" />
        </mxCell>
        <mxCell id="NKk_q9qwWGEqTN7oKwz2-58" value="" style="endArrow=none;html=1;rounded=0;movable=1;resizable=1;rotatable=1;deletable=1;editable=1;locked=0;connectable=1;fontSize=18;fontStyle=1" parent="NKk_q9qwWGEqTN7oKwz2-57" edge="1">
          <mxGeometry width="50" height="50" relative="1" as="geometry">
            <mxPoint y="100.02999999999997" as="sourcePoint" />
            <mxPoint x="180" y="100" as="targetPoint" />
          </mxGeometry>
        </mxCell>
        <mxCell id="NKk_q9qwWGEqTN7oKwz2-59" value="" style="rounded=0;whiteSpace=wrap;html=1;fillColor=#bac8d3;strokeColor=#23445d;movable=1;resizable=1;rotatable=1;deletable=1;editable=1;locked=0;connectable=1;fontSize=18;fontStyle=1" parent="NKk_q9qwWGEqTN7oKwz2-57" vertex="1">
          <mxGeometry x="10" y="60" width="30" height="40" as="geometry" />
        </mxCell>
        <mxCell id="NKk_q9qwWGEqTN7oKwz2-60" value="" style="rounded=0;whiteSpace=wrap;html=1;fillColor=#bac8d3;strokeColor=#23445d;movable=1;resizable=1;rotatable=1;deletable=1;editable=1;locked=0;connectable=1;" parent="NKk_q9qwWGEqTN7oKwz2-57" vertex="1">
          <mxGeometry x="50" y="30" width="30" height="70" as="geometry" />
        </mxCell>
        <mxCell id="NKk_q9qwWGEqTN7oKwz2-61" value="" style="rounded=0;whiteSpace=wrap;html=1;fillColor=#bac8d3;strokeColor=#23445d;movable=1;resizable=1;rotatable=1;deletable=1;editable=1;locked=0;connectable=1;fontSize=18;fontStyle=1" parent="NKk_q9qwWGEqTN7oKwz2-57" vertex="1">
          <mxGeometry x="95" y="80" width="30" height="20" as="geometry" />
        </mxCell>
        <mxCell id="NKk_q9qwWGEqTN7oKwz2-62" value="" style="rounded=0;whiteSpace=wrap;html=1;fillColor=#bac8d3;strokeColor=#23445d;movable=1;resizable=1;rotatable=1;deletable=1;editable=1;locked=0;connectable=1;" parent="NKk_q9qwWGEqTN7oKwz2-57" vertex="1">
          <mxGeometry x="140" y="40" width="30" height="60" as="geometry" />
        </mxCell>
        <mxCell id="NKk_q9qwWGEqTN7oKwz2-63" value="t_1" style="text;html=1;align=center;verticalAlign=middle;resizable=1;points=[];autosize=1;strokeColor=none;fillColor=none;movable=1;rotatable=1;deletable=1;editable=1;locked=0;connectable=1;fontSize=18;fontStyle=1" parent="NKk_q9qwWGEqTN7oKwz2-57" vertex="1">
          <mxGeometry y="95" width="50" height="40" as="geometry" />
        </mxCell>
        <mxCell id="NKk_q9qwWGEqTN7oKwz2-64" value="t_2" style="text;html=1;align=center;verticalAlign=middle;resizable=1;points=[];autosize=1;strokeColor=none;fillColor=none;movable=1;rotatable=1;deletable=1;editable=1;locked=0;connectable=1;fontSize=18;fontStyle=1" parent="NKk_q9qwWGEqTN7oKwz2-57" vertex="1">
          <mxGeometry x="40" y="95" width="50" height="40" as="geometry" />
        </mxCell>
        <mxCell id="NKk_q9qwWGEqTN7oKwz2-65" value="t_3" style="text;html=1;align=center;verticalAlign=middle;resizable=1;points=[];autosize=1;strokeColor=none;fillColor=none;movable=1;rotatable=1;deletable=1;editable=1;locked=0;connectable=1;fontSize=18;fontStyle=1" parent="NKk_q9qwWGEqTN7oKwz2-57" vertex="1">
          <mxGeometry x="85" y="95" width="50" height="40" as="geometry" />
        </mxCell>
        <mxCell id="NKk_q9qwWGEqTN7oKwz2-66" value="t_4" style="text;html=1;align=center;verticalAlign=middle;resizable=1;points=[];autosize=1;strokeColor=none;fillColor=none;movable=1;rotatable=1;deletable=1;editable=1;locked=0;connectable=1;fontSize=18;fontStyle=1" parent="NKk_q9qwWGEqTN7oKwz2-57" vertex="1">
          <mxGeometry x="130" y="95" width="50" height="40" as="geometry" />
        </mxCell>
        <mxCell id="NKk_q9qwWGEqTN7oKwz2-82" value="&lt;span&gt;&lt;b&gt;Path_1&lt;/b&gt;&lt;/span&gt;" style="text;html=1;align=center;verticalAlign=middle;resizable=0;points=[];autosize=1;strokeColor=none;fillColor=none;fontSize=22;" parent="NKk_q9qwWGEqTN7oKwz2-53" vertex="1">
          <mxGeometry y="-5" width="100" height="40" as="geometry" />
        </mxCell>
        <mxCell id="NKk_q9qwWGEqTN7oKwz2-67" value="" style="group" parent="1" vertex="1" connectable="0">
          <mxGeometry x="860" y="560" width="290" height="180" as="geometry" />
        </mxCell>
        <mxCell id="NKk_q9qwWGEqTN7oKwz2-89" style="edgeStyle=orthogonalEdgeStyle;rounded=0;orthogonalLoop=1;jettySize=auto;html=1;exitX=0.5;exitY=1;exitDx=0;exitDy=0;" parent="NKk_q9qwWGEqTN7oKwz2-67" source="NKk_q9qwWGEqTN7oKwz2-68" edge="1">
          <mxGeometry relative="1" as="geometry">
            <mxPoint x="150" y="240" as="targetPoint" />
          </mxGeometry>
        </mxCell>
        <mxCell id="NKk_q9qwWGEqTN7oKwz2-68" value="" style="rounded=0;whiteSpace=wrap;html=1;fillColor=#fad9d5;strokeColor=#ae4132;" parent="NKk_q9qwWGEqTN7oKwz2-67" vertex="1">
          <mxGeometry x="10" width="280" height="180" as="geometry" />
        </mxCell>
        <mxCell id="NKk_q9qwWGEqTN7oKwz2-69" value="&lt;font style=&quot;font-size: 16px;&quot;&gt;&lt;b style=&quot;&quot;&gt;candidate&lt;/b&gt;&lt;/font&gt;&lt;div&gt;&lt;font style=&quot;font-size: 16px;&quot;&gt;&lt;b style=&quot;&quot;&gt;token_logits&lt;/b&gt;&lt;/font&gt;&lt;/div&gt;" style="text;html=1;align=center;verticalAlign=middle;resizable=0;points=[];autosize=1;strokeColor=none;fillColor=none;" parent="NKk_q9qwWGEqTN7oKwz2-67" vertex="1">
          <mxGeometry y="130" width="120" height="50" as="geometry" />
        </mxCell>
        <mxCell id="NKk_q9qwWGEqTN7oKwz2-70" value="&lt;font style=&quot;font-size: 16px;&quot;&gt;&lt;b&gt;Z&lt;sub style=&quot;&quot;&gt;_2&lt;/sub&gt;(X&lt;sub style=&quot;&quot;&gt;t&lt;/sub&gt;|X&lt;sub style=&quot;&quot;&gt;&amp;lt;t&lt;/sub&gt;)&lt;/b&gt;&lt;/font&gt;" style="text;html=1;align=center;verticalAlign=middle;resizable=0;points=[];autosize=1;strokeColor=none;fillColor=none;" parent="NKk_q9qwWGEqTN7oKwz2-67" vertex="1">
          <mxGeometry x="140" y="130" width="100" height="40" as="geometry" />
        </mxCell>
        <mxCell id="NKk_q9qwWGEqTN7oKwz2-71" value="" style="group" parent="NKk_q9qwWGEqTN7oKwz2-67" vertex="1" connectable="0">
          <mxGeometry x="100" y="10" width="180" height="135" as="geometry" />
        </mxCell>
        <mxCell id="NKk_q9qwWGEqTN7oKwz2-72" value="" style="endArrow=none;html=1;rounded=0;movable=1;resizable=1;rotatable=1;deletable=1;editable=1;locked=0;connectable=1;fontSize=18;fontStyle=1" parent="NKk_q9qwWGEqTN7oKwz2-71" edge="1">
          <mxGeometry width="50" height="50" relative="1" as="geometry">
            <mxPoint y="100.02999999999997" as="sourcePoint" />
            <mxPoint x="180" y="100" as="targetPoint" />
          </mxGeometry>
        </mxCell>
        <mxCell id="NKk_q9qwWGEqTN7oKwz2-73" value="" style="rounded=0;whiteSpace=wrap;html=1;fillColor=#b0e3e6;strokeColor=#0e8088;movable=1;resizable=1;rotatable=1;deletable=1;editable=1;locked=0;connectable=1;fontSize=18;fontStyle=1" parent="NKk_q9qwWGEqTN7oKwz2-71" vertex="1">
          <mxGeometry x="10" y="70" width="30" height="30" as="geometry" />
        </mxCell>
        <mxCell id="NKk_q9qwWGEqTN7oKwz2-74" value="" style="rounded=0;whiteSpace=wrap;html=1;fillColor=#b0e3e6;strokeColor=#0e8088;movable=1;resizable=1;rotatable=1;deletable=1;editable=1;locked=0;connectable=1;" parent="NKk_q9qwWGEqTN7oKwz2-71" vertex="1">
          <mxGeometry x="50" y="30" width="30" height="70" as="geometry" />
        </mxCell>
        <mxCell id="NKk_q9qwWGEqTN7oKwz2-75" value="" style="rounded=0;whiteSpace=wrap;html=1;fillColor=#b0e3e6;strokeColor=#0e8088;movable=1;resizable=1;rotatable=1;deletable=1;editable=1;locked=0;connectable=1;" parent="NKk_q9qwWGEqTN7oKwz2-71" vertex="1">
          <mxGeometry x="95" y="20" width="30" height="80" as="geometry" />
        </mxCell>
        <mxCell id="NKk_q9qwWGEqTN7oKwz2-76" value="" style="rounded=0;whiteSpace=wrap;html=1;fillColor=#b0e3e6;strokeColor=#0e8088;movable=1;resizable=1;rotatable=1;deletable=1;editable=1;locked=0;connectable=1;" parent="NKk_q9qwWGEqTN7oKwz2-71" vertex="1">
          <mxGeometry x="140" width="30" height="100" as="geometry" />
        </mxCell>
        <mxCell id="NKk_q9qwWGEqTN7oKwz2-77" value="t_1" style="text;html=1;align=center;verticalAlign=middle;resizable=1;points=[];autosize=1;strokeColor=none;fillColor=none;movable=1;rotatable=1;deletable=1;editable=1;locked=0;connectable=1;fontSize=18;fontStyle=1" parent="NKk_q9qwWGEqTN7oKwz2-71" vertex="1">
          <mxGeometry y="95" width="50" height="40" as="geometry" />
        </mxCell>
        <mxCell id="NKk_q9qwWGEqTN7oKwz2-78" value="t_2" style="text;html=1;align=center;verticalAlign=middle;resizable=1;points=[];autosize=1;strokeColor=none;fillColor=none;movable=1;rotatable=1;deletable=1;editable=1;locked=0;connectable=1;fontSize=18;fontStyle=1" parent="NKk_q9qwWGEqTN7oKwz2-71" vertex="1">
          <mxGeometry x="40" y="95" width="50" height="40" as="geometry" />
        </mxCell>
        <mxCell id="NKk_q9qwWGEqTN7oKwz2-79" value="t_3" style="text;html=1;align=center;verticalAlign=middle;resizable=1;points=[];autosize=1;strokeColor=none;fillColor=none;movable=1;rotatable=1;deletable=1;editable=1;locked=0;connectable=1;fontSize=18;fontStyle=1" parent="NKk_q9qwWGEqTN7oKwz2-71" vertex="1">
          <mxGeometry x="85" y="95" width="50" height="40" as="geometry" />
        </mxCell>
        <mxCell id="NKk_q9qwWGEqTN7oKwz2-80" value="t_4" style="text;html=1;align=center;verticalAlign=middle;resizable=1;points=[];autosize=1;strokeColor=none;fillColor=none;movable=1;rotatable=1;deletable=1;editable=1;locked=0;connectable=1;fontSize=18;fontStyle=1" parent="NKk_q9qwWGEqTN7oKwz2-71" vertex="1">
          <mxGeometry x="130" y="95" width="50" height="40" as="geometry" />
        </mxCell>
        <mxCell id="NKk_q9qwWGEqTN7oKwz2-83" value="&lt;span&gt;&lt;b&gt;Path_2&lt;/b&gt;&lt;/span&gt;" style="text;html=1;align=center;verticalAlign=middle;resizable=0;points=[];autosize=1;strokeColor=none;fillColor=none;fontSize=22;" parent="NKk_q9qwWGEqTN7oKwz2-67" vertex="1">
          <mxGeometry y="-5" width="100" height="40" as="geometry" />
        </mxCell>
        <mxCell id="NKk_q9qwWGEqTN7oKwz2-93" value="" style="group" parent="1" vertex="1" connectable="0">
          <mxGeometry x="690" y="750" width="55" height="40" as="geometry" />
        </mxCell>
        <mxCell id="NKk_q9qwWGEqTN7oKwz2-91" value="" style="shape=waypoint;sketch=0;fillStyle=solid;size=6;pointerEvents=1;points=[];fillColor=none;resizable=0;rotatable=0;perimeter=centerPerimeter;snapToPoint=1;" parent="NKk_q9qwWGEqTN7oKwz2-93" vertex="1">
          <mxGeometry y="10" width="20" height="20" as="geometry" />
        </mxCell>
        <mxCell id="NKk_q9qwWGEqTN7oKwz2-92" value="&lt;span style=&quot;font-size: 24px;&quot;&gt;α1&lt;/span&gt;" style="text;html=1;align=center;verticalAlign=middle;resizable=0;points=[];autosize=1;strokeColor=none;fillColor=none;" parent="NKk_q9qwWGEqTN7oKwz2-93" vertex="1">
          <mxGeometry x="5" width="50" height="40" as="geometry" />
        </mxCell>
        <mxCell id="NKk_q9qwWGEqTN7oKwz2-94" value="" style="group" parent="1" vertex="1" connectable="0">
          <mxGeometry x="1010" y="750" width="55" height="40" as="geometry" />
        </mxCell>
        <mxCell id="NKk_q9qwWGEqTN7oKwz2-95" value="" style="shape=waypoint;sketch=0;fillStyle=solid;size=6;pointerEvents=1;points=[];fillColor=none;resizable=0;rotatable=0;perimeter=centerPerimeter;snapToPoint=1;" parent="NKk_q9qwWGEqTN7oKwz2-94" vertex="1">
          <mxGeometry y="10" width="20" height="20" as="geometry" />
        </mxCell>
        <mxCell id="NKk_q9qwWGEqTN7oKwz2-96" value="&lt;span style=&quot;font-size: 24px;&quot;&gt;α2&lt;/span&gt;" style="text;html=1;align=center;verticalAlign=middle;resizable=0;points=[];autosize=1;strokeColor=none;fillColor=none;" parent="NKk_q9qwWGEqTN7oKwz2-94" vertex="1">
          <mxGeometry x="5" width="50" height="40" as="geometry" />
        </mxCell>
        <mxCell id="NKk_q9qwWGEqTN7oKwz2-100" value="" style="group" parent="1" vertex="1" connectable="0">
          <mxGeometry x="670" y="780" width="370" height="40" as="geometry" />
        </mxCell>
        <mxCell id="NKk_q9qwWGEqTN7oKwz2-84" value="" style="endArrow=none;html=1;rounded=0;" parent="NKk_q9qwWGEqTN7oKwz2-100" target="NKk_q9qwWGEqTN7oKwz2-85" edge="1">
          <mxGeometry width="50" height="50" relative="1" as="geometry">
            <mxPoint y="20" as="sourcePoint" />
            <mxPoint x="150" y="20" as="targetPoint" />
          </mxGeometry>
        </mxCell>
        <mxCell id="NKk_q9qwWGEqTN7oKwz2-85" value="&lt;font style=&quot;font-size: 28px;&quot;&gt;+&lt;/font&gt;" style="ellipse;whiteSpace=wrap;html=1;" parent="NKk_q9qwWGEqTN7oKwz2-100" vertex="1">
          <mxGeometry x="157" width="40" height="40" as="geometry" />
        </mxCell>
        <mxCell id="NKk_q9qwWGEqTN7oKwz2-86" value="" style="endArrow=none;html=1;rounded=0;" parent="NKk_q9qwWGEqTN7oKwz2-100" edge="1">
          <mxGeometry width="50" height="50" relative="1" as="geometry">
            <mxPoint x="197" y="19.5" as="sourcePoint" />
            <mxPoint x="370" y="20" as="targetPoint" />
          </mxGeometry>
        </mxCell>
        <mxCell id="NKk_q9qwWGEqTN7oKwz2-101" value="" style="group" parent="1" vertex="1" connectable="0">
          <mxGeometry x="360" y="870" width="370" height="40" as="geometry" />
        </mxCell>
        <mxCell id="NKk_q9qwWGEqTN7oKwz2-102" value="" style="endArrow=none;html=1;rounded=0;" parent="NKk_q9qwWGEqTN7oKwz2-101" target="NKk_q9qwWGEqTN7oKwz2-103" edge="1">
          <mxGeometry width="50" height="50" relative="1" as="geometry">
            <mxPoint x="-20" y="20" as="sourcePoint" />
            <mxPoint x="150" y="20" as="targetPoint" />
          </mxGeometry>
        </mxCell>
        <mxCell id="NKk_q9qwWGEqTN7oKwz2-103" value="&lt;font style=&quot;font-size: 28px;&quot;&gt;-&lt;/font&gt;" style="ellipse;whiteSpace=wrap;html=1;" parent="NKk_q9qwWGEqTN7oKwz2-101" vertex="1">
          <mxGeometry x="157" width="40" height="40" as="geometry" />
        </mxCell>
        <mxCell id="NKk_q9qwWGEqTN7oKwz2-104" value="" style="endArrow=none;html=1;rounded=0;" parent="NKk_q9qwWGEqTN7oKwz2-101" edge="1">
          <mxGeometry width="50" height="50" relative="1" as="geometry">
            <mxPoint x="197" y="19.5" as="sourcePoint" />
            <mxPoint x="400" y="20" as="targetPoint" />
          </mxGeometry>
        </mxCell>
        <mxCell id="NKk_q9qwWGEqTN7oKwz2-105" value="" style="endArrow=classic;html=1;rounded=0;" parent="1" edge="1">
          <mxGeometry width="50" height="50" relative="1" as="geometry">
            <mxPoint x="740" y="800" as="sourcePoint" />
            <mxPoint x="740" y="890" as="targetPoint" />
          </mxGeometry>
        </mxCell>
        <mxCell id="NKk_q9qwWGEqTN7oKwz2-106" value="" style="group" parent="1" vertex="1" connectable="0">
          <mxGeometry x="445" y="930" width="195" height="130" as="geometry" />
        </mxCell>
        <mxCell id="NKk_q9qwWGEqTN7oKwz2-107" value="" style="endArrow=none;html=1;rounded=0;movable=1;resizable=1;rotatable=1;deletable=1;editable=1;locked=0;connectable=1;fontSize=18;fontStyle=1" parent="NKk_q9qwWGEqTN7oKwz2-106" edge="1">
          <mxGeometry width="50" height="50" relative="1" as="geometry">
            <mxPoint x="15" y="40.02999999999997" as="sourcePoint" />
            <mxPoint x="195" y="40" as="targetPoint" />
          </mxGeometry>
        </mxCell>
        <mxCell id="NKk_q9qwWGEqTN7oKwz2-108" value="" style="rounded=0;whiteSpace=wrap;html=1;fillColor=#cdeb8b;strokeColor=#36393d;movable=1;resizable=1;rotatable=1;deletable=1;editable=1;locked=0;connectable=1;fontSize=18;fontStyle=1" parent="NKk_q9qwWGEqTN7oKwz2-106" vertex="1">
          <mxGeometry x="25" y="20" width="30" height="20" as="geometry" />
        </mxCell>
        <mxCell id="NKk_q9qwWGEqTN7oKwz2-109" value="" style="rounded=0;whiteSpace=wrap;html=1;fillColor=#cdeb8b;strokeColor=#36393d;movable=1;resizable=1;rotatable=1;deletable=1;editable=1;locked=0;connectable=1;fontSize=18;fontStyle=1" parent="NKk_q9qwWGEqTN7oKwz2-106" vertex="1">
          <mxGeometry x="65" width="30" height="40" as="geometry" />
        </mxCell>
        <mxCell id="NKk_q9qwWGEqTN7oKwz2-110" value="" style="rounded=0;whiteSpace=wrap;html=1;fillColor=#cdeb8b;strokeColor=#36393d;movable=1;resizable=1;rotatable=1;deletable=1;editable=1;locked=0;connectable=1;fontSize=18;fontStyle=1" parent="NKk_q9qwWGEqTN7oKwz2-106" vertex="1">
          <mxGeometry x="110" y="10" width="30" height="30" as="geometry" />
        </mxCell>
        <mxCell id="NKk_q9qwWGEqTN7oKwz2-111" value="" style="rounded=0;whiteSpace=wrap;html=1;fillColor=#cdeb8b;strokeColor=#36393d;movable=1;resizable=1;rotatable=1;deletable=1;editable=1;locked=0;connectable=1;fontSize=18;fontStyle=1" parent="NKk_q9qwWGEqTN7oKwz2-106" vertex="1">
          <mxGeometry x="155" y="30" width="30" height="10" as="geometry" />
        </mxCell>
        <mxCell id="NKk_q9qwWGEqTN7oKwz2-112" value="t_1" style="text;html=1;align=center;verticalAlign=middle;resizable=1;points=[];autosize=1;strokeColor=none;fillColor=none;movable=1;rotatable=1;deletable=1;editable=1;locked=0;connectable=1;fontSize=18;fontStyle=1" parent="NKk_q9qwWGEqTN7oKwz2-106" vertex="1">
          <mxGeometry x="15" y="35" width="50" height="40" as="geometry" />
        </mxCell>
        <mxCell id="NKk_q9qwWGEqTN7oKwz2-113" value="t_2" style="text;html=1;align=center;verticalAlign=middle;resizable=1;points=[];autosize=1;strokeColor=none;fillColor=none;movable=1;rotatable=1;deletable=1;editable=1;locked=0;connectable=1;fontSize=18;fontStyle=1" parent="NKk_q9qwWGEqTN7oKwz2-106" vertex="1">
          <mxGeometry x="55" y="35" width="50" height="40" as="geometry" />
        </mxCell>
        <mxCell id="NKk_q9qwWGEqTN7oKwz2-114" value="t_3" style="text;html=1;align=center;verticalAlign=middle;resizable=1;points=[];autosize=1;strokeColor=none;fillColor=none;movable=1;rotatable=1;deletable=1;editable=1;locked=0;connectable=1;fontSize=18;fontStyle=1" parent="NKk_q9qwWGEqTN7oKwz2-106" vertex="1">
          <mxGeometry x="100" y="35" width="50" height="40" as="geometry" />
        </mxCell>
        <mxCell id="NKk_q9qwWGEqTN7oKwz2-115" value="t_4" style="text;html=1;align=center;verticalAlign=middle;resizable=1;points=[];autosize=1;strokeColor=none;fillColor=none;movable=1;rotatable=1;deletable=1;editable=1;locked=0;connectable=1;fontSize=18;fontStyle=1" parent="NKk_q9qwWGEqTN7oKwz2-106" vertex="1">
          <mxGeometry x="145" y="35" width="50" height="40" as="geometry" />
        </mxCell>
        <mxCell id="NKk_q9qwWGEqTN7oKwz2-137" value="" style="group" parent="NKk_q9qwWGEqTN7oKwz2-106" vertex="1" connectable="0">
          <mxGeometry x="105" y="60" width="55" height="40" as="geometry" />
        </mxCell>
        <mxCell id="NKk_q9qwWGEqTN7oKwz2-138" value="" style="shape=waypoint;sketch=0;fillStyle=solid;size=6;pointerEvents=1;points=[];fillColor=none;resizable=0;rotatable=0;perimeter=centerPerimeter;snapToPoint=1;" parent="NKk_q9qwWGEqTN7oKwz2-137" vertex="1">
          <mxGeometry y="10" width="20" height="20" as="geometry" />
        </mxCell>
        <mxCell id="NKk_q9qwWGEqTN7oKwz2-139" value="&lt;span style=&quot;font-size: 24px;&quot;&gt;β&lt;/span&gt;" style="text;html=1;align=center;verticalAlign=middle;resizable=0;points=[];autosize=1;strokeColor=none;fillColor=none;" parent="NKk_q9qwWGEqTN7oKwz2-137" vertex="1">
          <mxGeometry x="10" width="40" height="40" as="geometry" />
        </mxCell>
        <mxCell id="NKk_q9qwWGEqTN7oKwz2-141" style="edgeStyle=orthogonalEdgeStyle;rounded=0;orthogonalLoop=1;jettySize=auto;html=1;exitX=0.5;exitY=1;exitDx=0;exitDy=0;" parent="NKk_q9qwWGEqTN7oKwz2-106" source="NKk_q9qwWGEqTN7oKwz2-140" edge="1">
          <mxGeometry relative="1" as="geometry">
            <mxPoint x="95" y="140" as="targetPoint" />
          </mxGeometry>
        </mxCell>
        <mxCell id="NKk_q9qwWGEqTN7oKwz2-140" value="&lt;font style=&quot;font-size: 28px;&quot;&gt;+&lt;/font&gt;" style="ellipse;whiteSpace=wrap;html=1;" parent="NKk_q9qwWGEqTN7oKwz2-106" vertex="1">
          <mxGeometry x="75" y="82" width="40" height="40" as="geometry" />
        </mxCell>
        <mxCell id="NKk_q9qwWGEqTN7oKwz2-118" value="" style="endArrow=none;html=1;rounded=0;entryX=0.9;entryY=0.6;entryDx=0;entryDy=0;entryPerimeter=0;" parent="NKk_q9qwWGEqTN7oKwz2-106" edge="1">
          <mxGeometry width="50" height="50" relative="1" as="geometry">
            <mxPoint x="96" y="82" as="sourcePoint" />
            <mxPoint x="96" y="50" as="targetPoint" />
          </mxGeometry>
        </mxCell>
        <mxCell id="NKk_q9qwWGEqTN7oKwz2-117" value="" style="endArrow=classic;html=1;rounded=0;exitX=0.5;exitY=1;exitDx=0;exitDy=0;" parent="1" source="NKk_q9qwWGEqTN7oKwz2-103" edge="1">
          <mxGeometry width="50" height="50" relative="1" as="geometry">
            <mxPoint x="530" y="940" as="sourcePoint" />
            <mxPoint x="537" y="930" as="targetPoint" />
          </mxGeometry>
        </mxCell>
        <mxCell id="NKk_q9qwWGEqTN7oKwz2-119" value="" style="group" parent="1" vertex="1" connectable="0">
          <mxGeometry x="390" y="1070" width="290" height="180" as="geometry" />
        </mxCell>
        <mxCell id="NKk_q9qwWGEqTN7oKwz2-121" value="" style="rounded=0;whiteSpace=wrap;html=1;fillColor=#fad9d5;strokeColor=#ae4132;" parent="NKk_q9qwWGEqTN7oKwz2-119" vertex="1">
          <mxGeometry x="10" width="280" height="180" as="geometry" />
        </mxCell>
        <mxCell id="NKk_q9qwWGEqTN7oKwz2-122" value="&lt;font style=&quot;font-size: 16px;&quot;&gt;&lt;b style=&quot;&quot;&gt;final&lt;/b&gt;&lt;/font&gt;&lt;div&gt;&lt;font style=&quot;font-size: 16px;&quot;&gt;&lt;b style=&quot;&quot;&gt;token_logits&lt;/b&gt;&lt;/font&gt;&lt;/div&gt;" style="text;html=1;align=center;verticalAlign=middle;resizable=0;points=[];autosize=1;strokeColor=none;fillColor=none;" parent="NKk_q9qwWGEqTN7oKwz2-119" vertex="1">
          <mxGeometry y="130" width="120" height="50" as="geometry" />
        </mxCell>
        <mxCell id="NKk_q9qwWGEqTN7oKwz2-123" value="&lt;font style=&quot;font-size: 16px;&quot;&gt;&lt;b&gt;Z&lt;sup&gt;+&lt;/sup&gt;&lt;sub style=&quot;&quot;&gt;_0&lt;/sub&gt;(X&lt;sub style=&quot;&quot;&gt;t&lt;/sub&gt;|X&lt;sub style=&quot;&quot;&gt;&amp;lt;t&lt;/sub&gt;)&lt;/b&gt;&lt;/font&gt;" style="text;html=1;align=center;verticalAlign=middle;resizable=0;points=[];autosize=1;strokeColor=none;fillColor=none;" parent="NKk_q9qwWGEqTN7oKwz2-119" vertex="1">
          <mxGeometry x="135" y="130" width="110" height="40" as="geometry" />
        </mxCell>
        <mxCell id="NKk_q9qwWGEqTN7oKwz2-124" value="" style="group" parent="NKk_q9qwWGEqTN7oKwz2-119" vertex="1" connectable="0">
          <mxGeometry x="100" y="10" width="180" height="135" as="geometry" />
        </mxCell>
        <mxCell id="NKk_q9qwWGEqTN7oKwz2-125" value="" style="endArrow=none;html=1;rounded=0;movable=1;resizable=1;rotatable=1;deletable=1;editable=1;locked=0;connectable=1;fontSize=18;fontStyle=1" parent="NKk_q9qwWGEqTN7oKwz2-124" edge="1">
          <mxGeometry width="50" height="50" relative="1" as="geometry">
            <mxPoint y="100.02999999999997" as="sourcePoint" />
            <mxPoint x="180" y="100" as="targetPoint" />
          </mxGeometry>
        </mxCell>
        <mxCell id="NKk_q9qwWGEqTN7oKwz2-126" value="" style="rounded=0;whiteSpace=wrap;html=1;fillColor=#1ba1e2;strokeColor=#006EAF;movable=1;resizable=1;rotatable=1;deletable=1;editable=1;locked=0;connectable=1;fontColor=#ffffff;" parent="NKk_q9qwWGEqTN7oKwz2-124" vertex="1">
          <mxGeometry x="10" y="60" width="30" height="40" as="geometry" />
        </mxCell>
        <mxCell id="NKk_q9qwWGEqTN7oKwz2-127" value="" style="rounded=0;whiteSpace=wrap;html=1;fillColor=#1ba1e2;strokeColor=#006EAF;movable=1;resizable=1;rotatable=1;deletable=1;editable=1;locked=0;connectable=1;fontColor=#ffffff;" parent="NKk_q9qwWGEqTN7oKwz2-124" vertex="1">
          <mxGeometry x="50" y="20" width="30" height="80" as="geometry" />
        </mxCell>
        <mxCell id="NKk_q9qwWGEqTN7oKwz2-128" value="" style="rounded=0;whiteSpace=wrap;html=1;fillColor=#1ba1e2;strokeColor=#006EAF;movable=1;resizable=1;rotatable=1;deletable=1;editable=1;locked=0;connectable=1;fontColor=#ffffff;" parent="NKk_q9qwWGEqTN7oKwz2-124" vertex="1">
          <mxGeometry x="95" width="30" height="100" as="geometry" />
        </mxCell>
        <mxCell id="NKk_q9qwWGEqTN7oKwz2-129" value="" style="rounded=0;whiteSpace=wrap;html=1;fillColor=#1ba1e2;strokeColor=#006EAF;movable=1;resizable=1;rotatable=1;deletable=1;editable=1;locked=0;connectable=1;fontColor=#ffffff;" parent="NKk_q9qwWGEqTN7oKwz2-124" vertex="1">
          <mxGeometry x="140" y="70" width="30" height="30" as="geometry" />
        </mxCell>
        <mxCell id="NKk_q9qwWGEqTN7oKwz2-130" value="t_1" style="text;html=1;align=center;verticalAlign=middle;resizable=1;points=[];autosize=1;strokeColor=none;fillColor=none;movable=1;rotatable=1;deletable=1;editable=1;locked=0;connectable=1;fontSize=18;fontStyle=1" parent="NKk_q9qwWGEqTN7oKwz2-124" vertex="1">
          <mxGeometry y="95" width="50" height="40" as="geometry" />
        </mxCell>
        <mxCell id="NKk_q9qwWGEqTN7oKwz2-131" value="t_2" style="text;html=1;align=center;verticalAlign=middle;resizable=1;points=[];autosize=1;strokeColor=none;fillColor=none;movable=1;rotatable=1;deletable=1;editable=1;locked=0;connectable=1;fontSize=18;fontStyle=1" parent="NKk_q9qwWGEqTN7oKwz2-124" vertex="1">
          <mxGeometry x="40" y="95" width="50" height="40" as="geometry" />
        </mxCell>
        <mxCell id="NKk_q9qwWGEqTN7oKwz2-132" value="t_3" style="text;html=1;align=center;verticalAlign=middle;resizable=1;points=[];autosize=1;strokeColor=none;fillColor=none;movable=1;rotatable=1;deletable=1;editable=1;locked=0;connectable=1;fontSize=18;fontStyle=1" parent="NKk_q9qwWGEqTN7oKwz2-124" vertex="1">
          <mxGeometry x="85" y="95" width="50" height="40" as="geometry" />
        </mxCell>
        <mxCell id="NKk_q9qwWGEqTN7oKwz2-133" value="t_4" style="text;html=1;align=center;verticalAlign=middle;resizable=1;points=[];autosize=1;strokeColor=none;fillColor=none;movable=1;rotatable=1;deletable=1;editable=1;locked=0;connectable=1;fontSize=18;fontStyle=1" parent="NKk_q9qwWGEqTN7oKwz2-124" vertex="1">
          <mxGeometry x="130" y="95" width="50" height="40" as="geometry" />
        </mxCell>
        <mxCell id="NKk_q9qwWGEqTN7oKwz2-134" value="&lt;span style=&quot;font-size: 16px;&quot;&gt;&lt;b&gt;Path_0&lt;/b&gt;&lt;/span&gt;" style="text;html=1;align=center;verticalAlign=middle;resizable=0;points=[];autosize=1;strokeColor=none;fillColor=none;" parent="NKk_q9qwWGEqTN7oKwz2-119" vertex="1">
          <mxGeometry x="10" width="80" height="30" as="geometry" />
        </mxCell>
        <mxCell id="NKk_q9qwWGEqTN7oKwz2-136" value="" style="endArrow=none;html=1;rounded=0;entryX=0;entryY=0.5;entryDx=0;entryDy=0;" parent="1" target="NKk_q9qwWGEqTN7oKwz2-31" edge="1">
          <mxGeometry width="50" height="50" relative="1" as="geometry">
            <mxPoint x="520" y="1030" as="sourcePoint" />
            <mxPoint x="150" y="980" as="targetPoint" />
            <Array as="points">
              <mxPoint x="140" y="1030" />
              <mxPoint x="140" y="650" />
            </Array>
          </mxGeometry>
        </mxCell>
        <mxCell id="NKk_q9qwWGEqTN7oKwz2-142" value="" style="group;strokeColor=none;" parent="1" vertex="1" connectable="0">
          <mxGeometry x="-546" y="822" width="410" height="190" as="geometry" />
        </mxCell>
        <mxCell id="chwz9O-2DyEXbueZdgeh-6" style="edgeStyle=orthogonalEdgeStyle;rounded=0;orthogonalLoop=1;jettySize=auto;html=1;exitX=1;exitY=0.5;exitDx=0;exitDy=0;strokeWidth=4;" edge="1" parent="NKk_q9qwWGEqTN7oKwz2-142" source="NKk_q9qwWGEqTN7oKwz2-143">
          <mxGeometry relative="1" as="geometry">
            <mxPoint x="535.8711484593844" y="91.14285714285734" as="targetPoint" />
          </mxGeometry>
        </mxCell>
        <mxCell id="NKk_q9qwWGEqTN7oKwz2-143" value="" style="rounded=0;whiteSpace=wrap;html=1;fillColor=#fad9d5;strokeColor=none;" parent="NKk_q9qwWGEqTN7oKwz2-142" vertex="1">
          <mxGeometry x="-7.192982456140351" width="417.19298245614027" height="180" as="geometry" />
        </mxCell>
        <mxCell id="NKk_q9qwWGEqTN7oKwz2-146" value="" style="group;fontSize=18;fontStyle=1" parent="NKk_q9qwWGEqTN7oKwz2-142" vertex="1" connectable="0">
          <mxGeometry x="71.9298245614035" y="10" width="129.47368421052633" height="135" as="geometry" />
        </mxCell>
        <mxCell id="NKk_q9qwWGEqTN7oKwz2-152" value="t_1" style="text;html=1;align=center;verticalAlign=middle;resizable=1;points=[];autosize=1;strokeColor=none;fillColor=none;movable=1;rotatable=1;deletable=1;editable=1;locked=0;connectable=1;fontSize=18;fontStyle=1" parent="NKk_q9qwWGEqTN7oKwz2-146" vertex="1">
          <mxGeometry y="95" width="35.96491228070175" height="40" as="geometry" />
        </mxCell>
        <mxCell id="NKk_q9qwWGEqTN7oKwz2-153" value="t_2" style="text;html=1;align=center;verticalAlign=middle;resizable=1;points=[];autosize=1;strokeColor=none;fillColor=none;movable=1;rotatable=1;deletable=1;editable=1;locked=0;connectable=1;fontSize=18;fontStyle=1" parent="NKk_q9qwWGEqTN7oKwz2-146" vertex="1">
          <mxGeometry x="28.771929824561408" y="95" width="35.96491228070175" height="40" as="geometry" />
        </mxCell>
        <mxCell id="NKk_q9qwWGEqTN7oKwz2-154" value="t_3" style="text;html=1;align=center;verticalAlign=middle;resizable=1;points=[];autosize=1;strokeColor=none;fillColor=none;movable=1;rotatable=1;deletable=1;editable=1;locked=0;connectable=1;fontSize=18;fontStyle=1" parent="NKk_q9qwWGEqTN7oKwz2-146" vertex="1">
          <mxGeometry x="61.14035087719299" y="95" width="35.96491228070175" height="40" as="geometry" />
        </mxCell>
        <mxCell id="NKk_q9qwWGEqTN7oKwz2-155" value="t_4" style="text;html=1;align=center;verticalAlign=middle;resizable=1;points=[];autosize=1;strokeColor=none;fillColor=none;movable=1;rotatable=1;deletable=1;editable=1;locked=0;connectable=1;fontSize=18;fontStyle=1" parent="NKk_q9qwWGEqTN7oKwz2-146" vertex="1">
          <mxGeometry x="93.50877192982458" y="95" width="35.96491228070175" height="40" as="geometry" />
        </mxCell>
        <mxCell id="NKk_q9qwWGEqTN7oKwz2-147" value="" style="endArrow=none;html=1;rounded=0;movable=1;resizable=1;rotatable=1;deletable=1;editable=1;locked=0;connectable=1;fontSize=18;fontStyle=1" parent="NKk_q9qwWGEqTN7oKwz2-142" edge="1">
          <mxGeometry width="50" height="50" relative="1" as="geometry">
            <mxPoint x="71.9298245614035" y="110.02999999999997" as="sourcePoint" />
            <mxPoint x="338.0701754385965" y="109.68" as="targetPoint" />
          </mxGeometry>
        </mxCell>
        <mxCell id="NKk_q9qwWGEqTN7oKwz2-148" value="" style="rounded=0;whiteSpace=wrap;html=1;fillColor=#fad7ac;strokeColor=#b46504;movable=1;resizable=1;rotatable=1;deletable=1;editable=1;locked=0;connectable=1;fontSize=18;fontStyle=1" parent="NKk_q9qwWGEqTN7oKwz2-142" vertex="1">
          <mxGeometry x="79.12280701754386" y="50" width="21.57894736842105" height="60" as="geometry" />
        </mxCell>
        <mxCell id="NKk_q9qwWGEqTN7oKwz2-149" value="" style="rounded=0;whiteSpace=wrap;html=1;fillColor=#fad7ac;strokeColor=#b46504;movable=1;resizable=1;rotatable=1;deletable=1;editable=1;locked=0;connectable=1;fontSize=18;fontStyle=1" parent="NKk_q9qwWGEqTN7oKwz2-142" vertex="1">
          <mxGeometry x="107.89473684210527" y="90" width="21.57894736842105" height="20" as="geometry" />
        </mxCell>
        <mxCell id="NKk_q9qwWGEqTN7oKwz2-150" value="" style="rounded=0;whiteSpace=wrap;html=1;fillColor=#fad7ac;strokeColor=#b46504;movable=1;resizable=1;rotatable=1;deletable=1;editable=1;locked=0;connectable=1;fontSize=18;fontStyle=1" parent="NKk_q9qwWGEqTN7oKwz2-142" vertex="1">
          <mxGeometry x="140.26315789473682" y="70" width="21.57894736842105" height="40" as="geometry" />
        </mxCell>
        <mxCell id="NKk_q9qwWGEqTN7oKwz2-151" value="" style="rounded=0;whiteSpace=wrap;html=1;fillColor=#fad7ac;strokeColor=#b46504;movable=1;resizable=1;rotatable=1;deletable=1;editable=1;locked=0;connectable=1;fontSize=18;fontStyle=1" parent="NKk_q9qwWGEqTN7oKwz2-142" vertex="1">
          <mxGeometry x="172.6315789473684" y="30" width="21.57894736842105" height="80" as="geometry" />
        </mxCell>
        <mxCell id="NKk_q9qwWGEqTN7oKwz2-165" value="" style="rounded=0;whiteSpace=wrap;html=1;fillColor=#fad7ac;strokeColor=#b46504;movable=1;resizable=1;rotatable=1;deletable=1;editable=1;locked=0;connectable=1;fontSize=18;fontStyle=1" parent="NKk_q9qwWGEqTN7oKwz2-142" vertex="1">
          <mxGeometry x="208.59649122807014" y="10" width="21.57894736842105" height="100" as="geometry" />
        </mxCell>
        <mxCell id="NKk_q9qwWGEqTN7oKwz2-166" value="" style="rounded=0;whiteSpace=wrap;html=1;fillColor=#fad7ac;strokeColor=#b46504;movable=1;resizable=1;rotatable=1;deletable=1;editable=1;locked=0;connectable=1;fontSize=18;fontStyle=1" parent="NKk_q9qwWGEqTN7oKwz2-142" vertex="1">
          <mxGeometry x="244.56140350877195" y="50" width="21.57894736842105" height="60" as="geometry" />
        </mxCell>
        <mxCell id="NKk_q9qwWGEqTN7oKwz2-167" value="" style="rounded=0;whiteSpace=wrap;html=1;fillColor=#fad7ac;strokeColor=#b46504;movable=1;resizable=1;rotatable=1;deletable=1;editable=1;locked=0;connectable=1;fontSize=18;fontStyle=1" parent="NKk_q9qwWGEqTN7oKwz2-142" vertex="1">
          <mxGeometry x="280.52631578947364" y="70" width="21.57894736842105" height="40" as="geometry" />
        </mxCell>
        <mxCell id="NKk_q9qwWGEqTN7oKwz2-168" value="&lt;font&gt;...&lt;/font&gt;" style="text;html=1;align=center;verticalAlign=middle;resizable=0;points=[];autosize=1;strokeColor=none;fillColor=none;fontSize=18;fontStyle=1" parent="NKk_q9qwWGEqTN7oKwz2-142" vertex="1">
          <mxGeometry x="312.8947368421053" y="75" width="40" height="40" as="geometry" />
        </mxCell>
        <mxCell id="NKk_q9qwWGEqTN7oKwz2-169" value="t_5" style="text;html=1;align=center;verticalAlign=middle;resizable=1;points=[];autosize=1;strokeColor=none;fillColor=none;movable=1;rotatable=1;deletable=1;editable=1;locked=0;connectable=1;fontSize=18;fontStyle=1" parent="NKk_q9qwWGEqTN7oKwz2-142" vertex="1">
          <mxGeometry x="201.40350877192984" y="105" width="35.96491228070175" height="40" as="geometry" />
        </mxCell>
        <mxCell id="NKk_q9qwWGEqTN7oKwz2-170" value="t_6" style="text;html=1;align=center;verticalAlign=middle;resizable=1;points=[];autosize=1;strokeColor=none;fillColor=none;movable=1;rotatable=1;deletable=1;editable=1;locked=0;connectable=1;fontSize=18;fontStyle=1" parent="NKk_q9qwWGEqTN7oKwz2-142" vertex="1">
          <mxGeometry x="237.36842105263156" y="105" width="35.96491228070175" height="40" as="geometry" />
        </mxCell>
        <mxCell id="NKk_q9qwWGEqTN7oKwz2-171" value="t_7" style="text;html=1;align=center;verticalAlign=middle;resizable=1;points=[];autosize=1;strokeColor=none;fillColor=none;movable=1;rotatable=1;deletable=1;editable=1;locked=0;connectable=1;fontSize=18;fontStyle=1" parent="NKk_q9qwWGEqTN7oKwz2-142" vertex="1">
          <mxGeometry x="273.3333333333333" y="105" width="35.96491228070175" height="40" as="geometry" />
        </mxCell>
        <mxCell id="NKk_q9qwWGEqTN7oKwz2-156" value="&lt;b style=&quot;&quot;&gt;&lt;font style=&quot;font-size: 28px;&quot;&gt;origin_path&lt;/font&gt;&lt;/b&gt;" style="text;html=1;align=center;verticalAlign=middle;resizable=0;points=[];autosize=1;strokeColor=none;fillColor=none;" parent="NKk_q9qwWGEqTN7oKwz2-142" vertex="1">
          <mxGeometry x="-15.234313725490194" y="-10" width="180" height="50" as="geometry" />
        </mxCell>
        <mxCell id="NKk_q9qwWGEqTN7oKwz2-144" value="&lt;font style=&quot;font-size: 24px;&quot;&gt;&lt;br&gt;&lt;/font&gt;&lt;div&gt;&lt;font style=&quot;font-size: 24px;&quot;&gt;&lt;b style=&quot;&quot;&gt;token_logits&lt;/b&gt;&lt;/font&gt;&lt;/div&gt;" style="text;html=1;align=center;verticalAlign=middle;resizable=0;points=[];autosize=1;strokeColor=none;fillColor=none;" parent="NKk_q9qwWGEqTN7oKwz2-142" vertex="1">
          <mxGeometry x="-7.198059855521156" y="115" width="160" height="70" as="geometry" />
        </mxCell>
        <mxCell id="NKk_q9qwWGEqTN7oKwz2-158" value="" style="ellipse;whiteSpace=wrap;html=1;fillColor=#e1d5e7;strokeColor=#9673a6;" parent="1" vertex="1">
          <mxGeometry x="350" y="1370" width="50" height="50" as="geometry" />
        </mxCell>
        <mxCell id="NKk_q9qwWGEqTN7oKwz2-163" value="&lt;font&gt;token-2&lt;/font&gt;" style="text;html=1;align=center;verticalAlign=middle;resizable=0;points=[];autosize=1;strokeColor=none;fillColor=none;fontSize=28;fontStyle=1" parent="1" vertex="1">
          <mxGeometry x="90" y="1370" width="120" height="50" as="geometry" />
        </mxCell>
        <mxCell id="chwz9O-2DyEXbueZdgeh-5" style="edgeStyle=orthogonalEdgeStyle;rounded=0;orthogonalLoop=1;jettySize=auto;html=1;exitX=1;exitY=0.5;exitDx=0;exitDy=0;strokeWidth=5;" edge="1" parent="1" source="NKk_q9qwWGEqTN7oKwz2-172">
          <mxGeometry relative="1" as="geometry">
            <mxPoint x="-576.5714285714284" y="916" as="targetPoint" />
          </mxGeometry>
        </mxCell>
        <mxCell id="NKk_q9qwWGEqTN7oKwz2-172" value="&lt;font style=&quot;font-size: 22px;&quot;&gt;&lt;b&gt;model_input&lt;/b&gt;&lt;/font&gt;" style="rounded=1;whiteSpace=wrap;html=1;fillColor=#cce5ff;strokeColor=#36393d;" parent="1" vertex="1">
          <mxGeometry x="-825" y="887" width="165" height="60" as="geometry" />
        </mxCell>
        <mxCell id="NKk_q9qwWGEqTN7oKwz2-176" value="&lt;font&gt;......&lt;/font&gt;" style="text;html=1;align=center;verticalAlign=middle;resizable=0;points=[];autosize=1;strokeColor=none;fillColor=none;fontSize=36;fontStyle=1" parent="1" vertex="1">
          <mxGeometry x="646" y="1362" width="78" height="55" as="geometry" />
        </mxCell>
        <mxCell id="chwz9O-2DyEXbueZdgeh-1" value="&lt;font&gt;......&lt;/font&gt;" style="text;html=1;align=center;verticalAlign=middle;resizable=0;points=[];autosize=1;strokeColor=none;fillColor=none;fontSize=36;fontStyle=1" vertex="1" parent="1">
          <mxGeometry x="959" y="1365" width="78" height="55" as="geometry" />
        </mxCell>
      </root>
    </mxGraphModel>
  </diagram>
</mxfile>
